<svg id="Camada_1" data-name="Camada 1" xmlns="http://www.w3.org/2000/svg" viewBox="0 0 149.78 69.34"><defs><style>.cls-1{fill:#fff;}.cls-2{fill:none;stroke:#fff;stroke-miterlimit:10;stroke-width:2.79px;}</style></defs><path class="cls-1" d="M41.36.33H56.1a20.68,20.68,0,0,1,9.35,2A15,15,0,0,1,71.75,8,16,16,0,0,1,74,16.56a16,16,0,0,1-2.25,8.53,15.1,15.1,0,0,1-6.3,5.68,20.81,20.81,0,0,1-9.35,2H41.36ZM55.73,26.62a10.9,10.9,0,0,0,7.77-2.71,9.59,9.59,0,0,0,2.9-7.35,9.59,9.59,0,0,0-2.9-7.35A10.9,10.9,0,0,0,55.73,6.5H48.87V26.62Z" transform="translate(-0.22 -0.33)"/><path class="cls-1" d="M98.11,10.23q3.11,2.76,3.11,8.32V32.79H94.45V29.68c-1.36,2.32-3.9,3.48-7.6,3.48a11.81,11.81,0,0,1-5-1,7.29,7.29,0,0,1-3.22-2.69,7,7,0,0,1-1.11-3.89,6.5,6.5,0,0,1,2.61-5.47q2.63-2,8.1-2H94a4.61,4.61,0,0,0-1.44-3.64,6.34,6.34,0,0,0-4.31-1.27,12.51,12.51,0,0,0-3.92.63,10.31,10.31,0,0,0-3.27,1.69l-2.6-5.06a15.72,15.72,0,0,1,4.89-2.22,21.81,21.81,0,0,1,5.87-.79Q95,7.47,98.11,10.23ZM92,27.43a4.74,4.74,0,0,0,2-2.53V22.35H89c-3,0-4.45,1-4.45,2.93a2.62,2.62,0,0,0,1.09,2.2,4.93,4.93,0,0,0,3,.81A6.34,6.34,0,0,0,92,27.43Z" transform="translate(-0.22 -0.33)"/><path class="cls-1" d="M123.85,31.58a7.34,7.34,0,0,1-2.62,1.18,13,13,0,0,1-3.27.4,9.75,9.75,0,0,1-6.89-2.27c-1.62-1.52-2.43-3.74-2.43-6.68V14h-3.85V8.4h3.85V2.32h7.23V8.4h6.22V14h-6.22V24.12a3.4,3.4,0,0,0,.81,2.43,3,3,0,0,0,2.3.86,4.64,4.64,0,0,0,2.92-.93Z" transform="translate(-0.22 -0.33)"/><path class="cls-1" d="M146.89,10.23Q150,13,150,18.55V32.79h-6.77V29.68c-1.36,2.32-3.9,3.48-7.6,3.48a11.81,11.81,0,0,1-5-1,7.29,7.29,0,0,1-3.22-2.69,7,7,0,0,1-1.12-3.89,6.51,6.51,0,0,1,2.62-5.47q2.63-2,8.1-2h5.75a4.61,4.61,0,0,0-1.44-3.64A6.34,6.34,0,0,0,137,13.22a12.51,12.51,0,0,0-3.92.63,10.31,10.31,0,0,0-3.27,1.69l-2.6-5.06a15.72,15.72,0,0,1,4.89-2.22A21.81,21.81,0,0,1,138,7.47Q143.78,7.47,146.89,10.23Zm-6.16,17.2a4.74,4.74,0,0,0,2-2.53V22.35h-5c-3,0-4.45,1-4.45,2.93a2.62,2.62,0,0,0,1.09,2.2,4.93,4.93,0,0,0,3,.81A6.34,6.34,0,0,0,140.73,27.43Z" transform="translate(-0.22 -0.33)"/><path class="cls-1" d="M41.34,46.84h6.53v22.5H41.34Z" transform="translate(-0.22 -0.33)"/><path class="cls-1" d="M89.45,49q2.49,2.47,2.49,7.46V69.34H85.42V57.46a6.09,6.09,0,0,0-1.11-4,3.89,3.89,0,0,0-3.16-1.32,4.66,4.66,0,0,0-3.64,1.49,6.41,6.41,0,0,0-1.34,4.41V69.34H69.65V57.46q0-5.31-4.26-5.31a4.6,4.6,0,0,0-3.6,1.49,6.41,6.41,0,0,0-1.34,4.41V69.34H53.93V46.84h6.23v2.59a8.33,8.33,0,0,1,3.07-2.17,10.44,10.44,0,0,1,4-.75,9.59,9.59,0,0,1,4.3.94,7.6,7.6,0,0,1,3.1,2.74,9.21,9.21,0,0,1,3.49-2.72,11,11,0,0,1,4.62-1A9.07,9.07,0,0,1,89.45,49Z" transform="translate(-0.22 -0.33)"/><path class="cls-1" d="M102.37,68.19A11.1,11.1,0,0,1,98,64.07a12,12,0,0,1,0-12A11,11,0,0,1,102.37,48a13.49,13.49,0,0,1,6.38-1.48A13.34,13.34,0,0,1,115.1,48a11,11,0,0,1,4.39,4.12,12,12,0,0,1,0,12,11.11,11.11,0,0,1-4.39,4.12,13.34,13.34,0,0,1-6.35,1.48A13.49,13.49,0,0,1,102.37,68.19Zm10.5-5.56a6.33,6.33,0,0,0,1.61-4.54,6.33,6.33,0,0,0-1.61-4.54,5.89,5.89,0,0,0-8.26,0A6.25,6.25,0,0,0,103,58.09a6.25,6.25,0,0,0,1.63,4.54,5.89,5.89,0,0,0,8.26,0Z" transform="translate(-0.22 -0.33)"/><path class="cls-1" d="M144.43,48a10.31,10.31,0,0,1,4,4.06,13.39,13.39,0,0,1,0,12.16,10.31,10.31,0,0,1-4,4.06,11.44,11.44,0,0,1-5.7,1.44c-3.1,0-5.45-1-7.07-2.93v2.6h-6.23v-31H132V49.23a8.67,8.67,0,0,1,6.78-2.72A11.44,11.44,0,0,1,144.43,48Zm-2.71,14.68a6.32,6.32,0,0,0,1.6-4.54,6.32,6.32,0,0,0-1.6-4.54,5.87,5.87,0,0,0-8.24,0,6.29,6.29,0,0,0-1.61,4.54,6.29,6.29,0,0,0,1.61,4.54,5.87,5.87,0,0,0,8.24,0Z" transform="translate(-0.22 -0.33)"/><circle class="cls-1" cx="5.14" cy="10.58" r="4.91"/><circle class="cls-1" cx="29.11" cy="34.46" r="4.91"/><circle class="cls-1" cx="4.91" cy="58.76" r="4.91"/><polyline class="cls-2" points="5.14 10.58 29 34.47 6.07 58.5"/></svg>