<svg id="Camada_1" data-name="Camada 1" xmlns="http://www.w3.org/2000/svg" viewBox="0 0 107.76 49.89"><defs><style>.cls-1{fill:#1c85c7;}.cls-2{fill:#ffc107;}.cls-3{fill:none;stroke:#1c85c7;stroke-miterlimit:10;stroke-width:2.01px;}</style></defs><path class="cls-1" d="M30.72.05H41.33a14.9,14.9,0,0,1,6.72,1.46,10.81,10.81,0,0,1,4.53,4.08,11.51,11.51,0,0,1,1.62,6.14,11.49,11.49,0,0,1-1.62,6.14A10.83,10.83,0,0,1,48.05,22a15,15,0,0,1-6.72,1.45H30.72ZM41.06,19A7.87,7.87,0,0,0,46.65,17a6.88,6.88,0,0,0,2.08-5.29,6.9,6.9,0,0,0-2.08-5.29,7.87,7.87,0,0,0-5.59-1.95H36.12V19Z" transform="translate(-1.12 -0.05)"/><path class="cls-1" d="M71.55,7.18q2.24,2,2.24,6V23.41H68.92V21.17q-1.47,2.5-5.48,2.5a8.41,8.41,0,0,1-3.58-.7A5.3,5.3,0,0,1,57.54,21a5.06,5.06,0,0,1-.8-2.8,4.7,4.7,0,0,1,1.88-3.94c1.26-1,3.2-1.43,5.82-1.43h4.14a3.3,3.3,0,0,0-1-2.62,4.58,4.58,0,0,0-3.11-.92,9,9,0,0,0-2.81.45A7.51,7.51,0,0,0,59.27,11L57.41,7.36a11.19,11.19,0,0,1,3.52-1.6,15.63,15.63,0,0,1,4.22-.57A9.29,9.29,0,0,1,71.55,7.18ZM67.11,19.55a3.36,3.36,0,0,0,1.47-1.81V15.9H65c-2.13,0-3.2.7-3.2,2.1a1.88,1.88,0,0,0,.78,1.59,3.55,3.55,0,0,0,2.16.58A4.45,4.45,0,0,0,67.11,19.55Z" transform="translate(-1.12 -0.05)"/><path class="cls-1" d="M90.07,22.54a5.39,5.39,0,0,1-1.89.85,9.46,9.46,0,0,1-2.35.28,7,7,0,0,1-5-1.63,6.25,6.25,0,0,1-1.76-4.8V9.86H76.35v-4h2.77V1.49h5.21V5.86H88.8v4H84.33v7.31a2.43,2.43,0,0,0,.58,1.75,2.17,2.17,0,0,0,1.65.62,3.33,3.33,0,0,0,2.11-.67Z" transform="translate(-1.12 -0.05)"/><path class="cls-1" d="M106.65,7.18q2.23,2,2.23,6V23.41H104V21.17q-1.47,2.5-5.47,2.5A8.49,8.49,0,0,1,95,23,5.28,5.28,0,0,1,92.64,21a5,5,0,0,1-.81-2.8,4.68,4.68,0,0,1,1.89-3.94c1.26-1,3.2-1.43,5.82-1.43h4.14a3.31,3.31,0,0,0-1-2.62,4.56,4.56,0,0,0-3.1-.92,9,9,0,0,0-2.82.45A7.46,7.46,0,0,0,94.37,11L92.5,7.36A11.3,11.3,0,0,1,96,5.76a15.73,15.73,0,0,1,4.22-.57Q104.41,5.19,106.65,7.18Zm-4.44,12.37a3.36,3.36,0,0,0,1.47-1.81V15.9h-3.57c-2.14,0-3.2.7-3.2,2.1a1.88,1.88,0,0,0,.78,1.59,3.52,3.52,0,0,0,2.15.58A4.46,4.46,0,0,0,102.21,19.55Z" transform="translate(-1.12 -0.05)"/><path class="cls-2" d="M30.71,33.52H35.4V49.7H30.71Z" transform="translate(-1.12 -0.05)"/><path class="cls-2" d="M65.32,35.07a7.3,7.3,0,0,1,1.79,5.37V49.7H62.42V41.16a4.39,4.39,0,0,0-.8-2.87,2.81,2.81,0,0,0-2.27-.95,3.35,3.35,0,0,0-2.62,1.07,4.6,4.6,0,0,0-1,3.17V49.7h-4.7V41.16q0-3.82-3.06-3.82a3.31,3.31,0,0,0-2.59,1.07,4.6,4.6,0,0,0-1,3.17V49.7h-4.7V33.52h4.48v1.87a5.87,5.87,0,0,1,2.22-1.57,7.45,7.45,0,0,1,2.87-.54,7,7,0,0,1,3.1.68,5.41,5.41,0,0,1,2.22,2,6.6,6.6,0,0,1,2.52-2,7.93,7.93,0,0,1,3.32-.69A6.55,6.55,0,0,1,65.32,35.07Z" transform="translate(-1.12 -0.05)"/><path class="cls-2" d="M74.61,48.88a7.9,7.9,0,0,1-3.17-3,8.68,8.68,0,0,1,0-8.6,7.94,7.94,0,0,1,3.17-3,9.77,9.77,0,0,1,4.59-1.07,9.6,9.6,0,0,1,4.57,1.07,7.92,7.92,0,0,1,3.16,3,8.61,8.61,0,0,1,0,8.6,7.87,7.87,0,0,1-3.16,3A9.6,9.6,0,0,1,79.2,50,9.77,9.77,0,0,1,74.61,48.88Zm7.55-4a4.53,4.53,0,0,0,1.16-3.27,4.5,4.5,0,0,0-1.16-3.26,3.91,3.91,0,0,0-3-1.22,4,4,0,0,0-3,1.22,4.51,4.51,0,0,0-1.17,3.26,4.53,4.53,0,0,0,1.17,3.27,4,4,0,0,0,3,1.21A3.91,3.91,0,0,0,82.16,44.88Z" transform="translate(-1.12 -0.05)"/><path class="cls-2" d="M104.88,34.32a7.4,7.4,0,0,1,2.9,2.92,9.64,9.64,0,0,1,0,8.75,7.47,7.47,0,0,1-2.9,2.92,8.31,8.31,0,0,1-4.11,1,6.22,6.22,0,0,1-5.08-2.11V49.7H91.2V27.38h4.7v7.85a6.24,6.24,0,0,1,4.87-1.95A8.31,8.31,0,0,1,104.88,34.32Zm-2,10.56a4.57,4.57,0,0,0,1.16-3.27,4.54,4.54,0,0,0-1.16-3.26,4.2,4.2,0,0,0-5.92,0,4.5,4.5,0,0,0-1.16,3.26A4.53,4.53,0,0,0,97,44.88a4.23,4.23,0,0,0,5.92,0Z" transform="translate(-1.12 -0.05)"/><circle class="cls-1" cx="3.7" cy="7.61" r="3.53"/><circle class="cls-1" cx="20.94" cy="24.79" r="3.53"/><circle class="cls-1" cx="3.53" cy="42.28" r="3.53"/><polyline class="cls-3" points="3.7 7.61 20.86 24.8 4.37 42.09"/></svg>