<svg id="Camada_1" data-name="Camada 1" xmlns="http://www.w3.org/2000/svg" viewBox="0 0 175 36.78"><defs><style>.cls-1{fill:#1c85c7;}.cls-2{fill:#ffc107;}.cls-3{fill:none;stroke:#1c85c7;stroke-miterlimit:10;stroke-width:1.77px;}</style></defs><path class="cls-1" d="M28.21,9.59h9.36a13.15,13.15,0,0,1,5.92,1.28,9.52,9.52,0,0,1,4,3.6,10.14,10.14,0,0,1,1.43,5.41,10.14,10.14,0,0,1-1.43,5.41,9.6,9.6,0,0,1-4,3.61,13.15,13.15,0,0,1-5.92,1.27H28.21Zm9.12,16.67a6.92,6.92,0,0,0,4.93-1.72,6.08,6.08,0,0,0,1.83-4.66,6.09,6.09,0,0,0-1.83-4.66,6.92,6.92,0,0,0-4.93-1.72H33V26.26Z" transform="translate(0 -1.61)"/><path class="cls-1" d="M64.21,15.87a6.69,6.69,0,0,1,2,5.28v9H61.89v-2c-.87,1.47-2.47,2.21-4.83,2.21a7.52,7.52,0,0,1-3.16-.62,4.73,4.73,0,0,1-2-1.7,4.46,4.46,0,0,1-.71-2.47,4.14,4.14,0,0,1,1.66-3.47A8.44,8.44,0,0,1,58,20.88h3.64a2.92,2.92,0,0,0-.91-2.31A4,4,0,0,0,58,17.76a8.11,8.11,0,0,0-2.49.4,6.74,6.74,0,0,0-2.07,1.07L51.74,16a9.83,9.83,0,0,1,3.1-1.41,13.68,13.68,0,0,1,3.72-.5A8.22,8.22,0,0,1,64.21,15.87ZM60.3,26.78a2.94,2.94,0,0,0,1.29-1.6V23.56H58.45c-1.89,0-2.83.62-2.83,1.85a1.66,1.66,0,0,0,.69,1.4,3.15,3.15,0,0,0,1.9.51A4,4,0,0,0,60.3,26.78Z" transform="translate(0 -1.61)"/><path class="cls-1" d="M80.53,29.41a4.79,4.79,0,0,1-1.66.75,8.27,8.27,0,0,1-2.07.25A6.16,6.16,0,0,1,72.43,29a5.51,5.51,0,0,1-1.55-4.24v-6.5H68.44V14.71h2.44V10.85h4.59v3.86h3.94v3.52H75.47v6.45A2.13,2.13,0,0,0,76,26.22a1.91,1.91,0,0,0,1.45.54,3,3,0,0,0,1.86-.58Z" transform="translate(0 -1.61)"/><path class="cls-1" d="M95.15,15.87a6.69,6.69,0,0,1,2,5.28v9h-4.3v-2Q91.53,30.41,88,30.41a7.48,7.48,0,0,1-3.16-.62,4.73,4.73,0,0,1-2-1.7,4.38,4.38,0,0,1-.71-2.47,4.11,4.11,0,0,1,1.66-3.47,8.42,8.42,0,0,1,5.13-1.27h3.65a3,3,0,0,0-.91-2.31,4,4,0,0,0-2.74-.81,8.09,8.09,0,0,0-2.48.4,6.68,6.68,0,0,0-2.08,1.07L82.68,16a9.73,9.73,0,0,1,3.1-1.41,13.68,13.68,0,0,1,3.72-.5A8.24,8.24,0,0,1,95.15,15.87ZM91.23,26.78a3,3,0,0,0,1.3-1.6V23.56H89.38c-1.88,0-2.82.62-2.82,1.85a1.66,1.66,0,0,0,.69,1.4,3.13,3.13,0,0,0,1.9.51A4,4,0,0,0,91.23,26.78Z" transform="translate(0 -1.61)"/><path class="cls-2" d="M101.33,14.92h4.43V30.18h-4.43Z" transform="translate(0 -1.61)"/><path class="cls-2" d="M134,16.38a6.92,6.92,0,0,1,1.69,5.07v8.73h-4.43v-8a4.13,4.13,0,0,0-.75-2.71,2.64,2.64,0,0,0-2.14-.9,3.16,3.16,0,0,0-2.47,1,4.31,4.31,0,0,0-.91,3v7.66h-4.42v-8c0-2.4-1-3.61-2.9-3.61a3.14,3.14,0,0,0-2.44,1,4.36,4.36,0,0,0-.9,3v7.66h-4.43V14.92h4.23v1.76a5.55,5.55,0,0,1,2.08-1.47,6.85,6.85,0,0,1,2.71-.52,6.62,6.62,0,0,1,2.92.64,5.24,5.24,0,0,1,2.1,1.86,6.33,6.33,0,0,1,2.37-1.84,7.38,7.38,0,0,1,3.13-.66A6.2,6.2,0,0,1,134,16.38Z" transform="translate(0 -1.61)"/><path class="cls-2" d="M142.73,29.4a7.52,7.52,0,0,1-3-2.79,7.68,7.68,0,0,1-1.08-4.06,7.67,7.67,0,0,1,1.08-4.05,7.48,7.48,0,0,1,3-2.8,9.19,9.19,0,0,1,4.33-1,9.08,9.08,0,0,1,4.31,1,7.45,7.45,0,0,1,3,2.8,7.67,7.67,0,0,1,1.08,4.05,7.68,7.68,0,0,1-1.08,4.06,7.49,7.49,0,0,1-3,2.79,9.08,9.08,0,0,1-4.31,1A9.19,9.19,0,0,1,142.73,29.4Zm7.12-3.77a4.28,4.28,0,0,0,1.1-3.08,4.3,4.3,0,0,0-1.1-3.08,3.69,3.69,0,0,0-2.79-1.14,3.75,3.75,0,0,0-2.81,1.14,4.26,4.26,0,0,0-1.11,3.08,4.25,4.25,0,0,0,1.11,3.08,3.72,3.72,0,0,0,2.81,1.15A3.66,3.66,0,0,0,149.85,25.63Z" transform="translate(0 -1.61)"/><path class="cls-2" d="M171.27,15.67A7.1,7.1,0,0,1,174,18.42a8.36,8.36,0,0,1,1,4.13,8.33,8.33,0,0,1-1,4.13,7,7,0,0,1-2.74,2.75,7.78,7.78,0,0,1-3.87,1,5.87,5.87,0,0,1-4.8-2v1.76h-4.22v-21h4.42v7.41a5.91,5.91,0,0,1,4.6-1.85A7.78,7.78,0,0,1,171.27,15.67Zm-1.84,10a4.32,4.32,0,0,0,1.09-3.08,4.34,4.34,0,0,0-1.09-3.08,4,4,0,0,0-5.59,0,4.3,4.3,0,0,0-1.09,3.08,4.28,4.28,0,0,0,1.09,3.08,4,4,0,0,0,5.59,0Z" transform="translate(0 -1.61)"/><circle class="cls-1" cx="3.26" cy="3.11" r="3.11"/><circle class="cls-1" cx="18.46" cy="18.26" r="3.11"/><circle class="cls-1" cx="3.11" cy="33.67" r="3.11"/><polyline class="cls-3" points="3.26 3.11 18.39 18.27 3.85 33.5"/><circle class="cls-2" cx="103.53" cy="9.42" r="2.27"/></svg>